#!OML:ASF F:\VICON\USERDATA\INSTALL\Justin_Nancy\Justin_Nancy.ASF
:FULLY-SPECIFIED
:DEGREES
158
root 13.4257 17.3774 -4.94817 1.88572 -3.22224 -3.79588
lowerback 6.90687 1.4697 3.64556
upperback -0.0830962 2.3783 3.15397
thorax -3.94958 1.13752 0.978664
lowerneck -16.4795 -3.98525 -9.72313
upperneck 23.6122 -4.66471 6.69853
head 10.7123 -2.21823 3.38801
rclavicle 1.57537e-014 -1.90833e-014
rhumerus -25.8149 -5.9594 -81.3195
rradius 37.8811
rwrist 1.97477
rhand -14.4722 12.6025
rfingers 7.12502
rthumb 11.6737 -17.0523
lclavicle 1.57537e-014 -1.90833e-014
lhumerus -35.0321 17.1946 81.8976
lradius 22.6526
lwrist -12.2443
lhand -12.0637 31.4489
lfingers 7.12502
lthumb 13.9956 60.9578
rfemur 7.491 4.12962 31.2057
rtibia 20.0226
rfoot -14.2345 -4.25994
rtoes -3.75605
lfemur -28.0062 -5.84424 -11.7501
ltibia 24.4071
lfoot -4.16861 5.27633
ltoes -4.84327
159
root 13.4381 17.3906 -4.81126 1.83038 -3.5965 -3.41706
lowerback 6.93687 1.57685 3.15172
upperback -0.109943 2.47935 3.03075
thorax -4.00825 1.19564 1.11524
lowerneck -16.6491 -4.07177 -9.6833
upperneck 23.791 -4.7995 6.72941
head 10.8238 -2.27108 3.37482
rclavicle -4.07509e-015 7.95139e-016
rhumerus -25.9975 -6.47366 -81.2706
rradius 37.555
rwrist 2.26574
rhand -14.6121 12.722
rfingers 7.12502
rthumb 11.5388 -16.9403
lclavicle -4.07509e-015 7.95139e-016
lhumerus -34.9621 17.6867 81.5772
lradius 22.2962
lwrist -12.9821
lhand -7.43933 43.4995
lfingers 7.12502
lthumb 18.4482 72.6447
rfemur 7.02155 4.45676 30.7629
rtibia 21.9581
rfoot -14.148 -4.24443
rtoes -5.11212
lfemur -27.5171 -5.93675 -12.0957
ltibia 24.2998
lfoot -3.55786 5.14127
ltoes -2.70295
160
root 13.4462 17.3985 -4.67885 1.74411 -3.64057 -2.98853
lowerback 6.96582 1.5861 2.62339
upperback -0.0788197 2.44361 2.89439
thorax -4.00756 1.18755 1.2723
lowerneck -16.8377 -4.17196 -9.54579
upperneck 23.812 -4.94088 6.64249
head 10.8757 -2.33017 3.29715
rclavicle -3.13086e-014 -6.36111e-015
rhumerus -25.9992 -7.04731 -81.2381
rradius 37.1271
rwrist 2.59306
rhand -14.6224 12.7553
rfingers 7.12502
rthumb 11.5289 -16.9076
lclavicle -3.13086e-014 -6.36111e-015
lhumerus -34.6497 17.7151 81.5576
lradius 22.0279
lwrist -13.1072
lhand -12.7773 30.1568
lfingers 7.12502
lthumb 13.3078 59.7119
rfemur 6.46857 4.41516 30.289
rtibia 24.0033
rfoot -13.9416 -4.24669
rtoes -6.40087
lfemur -27.1588 -4.56622 -12.9833
ltibia 24.4266
lfoot -2.97343 3.2878
ltoes -2.61726
161
root 13.4539 17.4119 -4.55337 1.78421 -3.59524 -2.58119
lowerback 6.90164 1.5291 2.11427
upperback -0.105285 2.32001 2.76934
thorax -4.01273 1.13546 1.44162
lowerneck -16.8103 -4.16999 -9.55816
upperneck 23.7558 -4.98208 6.81448
head 10.858 -2.33001 3.35565
rclavicle -1.56543e-014 -1.51076e-014
rhumerus -26.1314 -7.51025 -81.2388
rradius 36.7832
rwrist 2.84016
rhand -14.5637 12.8079
rfingers 7.12502
rthumb 11.5855 -16.8518
lclavicle -1.56543e-014 -1.51076e-014
lhumerus -34.4908 17.9421 81.3697
lradius 21.6891
lwrist -13.2607
lhand -15.9134 21.4764
lfingers 7.12502
lthumb 10.2837 51.2049
rfemur 5.54625 4.20578 29.7886
rtibia 26.3368
rfoot -13.5894 -4.05769
rtoes -7.25215
lfemur -26.6876 -2.75025 -14.0511
ltibia 24.3705
lfoot -2.2653 1.7283
ltoes -4.54763
162
root 13.4665 17.4357 -4.41436 1.56161 -3.73197 -2.10994
lowerback 6.91506 1.54247 1.63642
upperback -0.111107 2.29357 2.60838
thorax -4.03762 1.13043 1.54473
lowerneck -16.3698 -4.14955 -9.78354
upperneck 23.717 -5.0366 7.20469
head 10.78 -2.33778 3.53244
rclavicle -1.66979e-014 -2.94201e-014
rhumerus -26.4256 -8.10156 -81.1222
rradius 36.2344
rwrist 3.18984
rhand -14.4124 12.4746
rfingers 7.12502
rthumb 11.7314 -17.1769
lclavicle -1.66979e-014 -2.94201e-014
lhumerus -34.8663 18.2112 81.0342
lradius 21.665
lwrist -13.6705
lhand -13.5577 27.2482
lfingers 7.12502
lthumb 12.5555 56.851
rfemur 4.88351 3.89073 29.1104
rtibia 28.7408
rfoot -13.1816 -3.64922
rtoes -8.52285
lfemur -25.7488 -1.47929 -15.0633
ltibia 24.326
lfoot -2.20807 1.13577
ltoes -4.58818
163
root 13.4905 17.4392 -4.25364 1.34829 -4.06357 -1.3566
lowerback 6.53025 1.60575 0.987488
upperback 0.01184 2.30176 2.34381
thorax -3.70786 1.14582 1.64558
lowerneck -16.5145 -4.14027 -9.74526
upperneck 24.0894 -5.05604 7.26288
head 10.9482 -2.33607 3.5514
rclavicle 4.27387e-015 5.56597e-015
rhumerus -26.6962 -8.74506 -81.0487
rradius 35.7359
rwrist 3.67898
rhand -14.5178 12.2332
rfingers 7.12502
rthumb 11.6298 -17.4241
lclavicle 4.27387e-015 5.56597e-015
lhumerus -35.0996 17.9407 81.1069
lradius 22.0754
lwrist -13.4702
lhand -12.2427 31.1573
lfingers 7.12502
lthumb 13.8231 60.678
rfemur 4.19831 3.56876 27.9701
rtibia 31.2111
rfoot -12.6376 -2.93635
rtoes -10.0187
lfemur -25.057 -1.26948 -16.0111
ltibia 24.1234
lfoot -2.10324 0.983984
ltoes -1.17111
